<mxfile host="app.diagrams.net" modified="2021-07-22T11:42:25.269Z" agent="5.0 (Windows NT 10.0; Win64; x64) AppleWebKit/537.36 (KHTML, like Gecko) Chrome/91.0.4472.124 Safari/537.36" etag="gv0CVa5nBlfZwsmlNt-i" version="14.9.0" type="github">
  <diagram id="aI12qcD_9d_CpV8lR-iv" name="第 1 页">
    <mxGraphModel dx="1422" dy="762" grid="1" gridSize="10" guides="1" tooltips="1" connect="1" arrows="1" fold="1" page="1" pageScale="1" pageWidth="827" pageHeight="1169" math="0" shadow="0">
      <root>
        <mxCell id="0" />
        <mxCell id="1" parent="0" />
        <mxCell id="fjmunv5LrS3fBDm1KLxQ-1" value="" style="whiteSpace=wrap;html=1;aspect=fixed;fillColor=#fad7ac;rounded=0;glass=0;sketch=1;strokeColor=#b46504;" vertex="1" parent="1">
          <mxGeometry x="329" y="620" width="310" height="310" as="geometry" />
        </mxCell>
        <mxCell id="fjmunv5LrS3fBDm1KLxQ-2" value="" style="ellipse;whiteSpace=wrap;html=1;aspect=fixed;fontColor=#ffffff;fillColor=#e51400;strokeColor=#B20000;" vertex="1" parent="1">
          <mxGeometry x="360" y="630" width="10" height="10" as="geometry" />
        </mxCell>
        <mxCell id="fjmunv5LrS3fBDm1KLxQ-3" value="" style="ellipse;whiteSpace=wrap;html=1;aspect=fixed;fontColor=#ffffff;fillColor=#e51400;strokeColor=#B20000;" vertex="1" parent="1">
          <mxGeometry x="380" y="630" width="10" height="10" as="geometry" />
        </mxCell>
        <mxCell id="fjmunv5LrS3fBDm1KLxQ-4" value="" style="ellipse;whiteSpace=wrap;html=1;aspect=fixed;fontColor=#ffffff;fillColor=#e51400;strokeColor=#B20000;" vertex="1" parent="1">
          <mxGeometry x="400" y="630" width="10" height="10" as="geometry" />
        </mxCell>
        <mxCell id="fjmunv5LrS3fBDm1KLxQ-5" value="" style="ellipse;whiteSpace=wrap;html=1;aspect=fixed;fontColor=#ffffff;fillColor=#e51400;strokeColor=#B20000;" vertex="1" parent="1">
          <mxGeometry x="420" y="630" width="10" height="10" as="geometry" />
        </mxCell>
        <mxCell id="fjmunv5LrS3fBDm1KLxQ-6" value="" style="ellipse;whiteSpace=wrap;html=1;aspect=fixed;fontColor=#ffffff;fillColor=#e51400;strokeColor=#B20000;" vertex="1" parent="1">
          <mxGeometry x="440" y="630" width="10" height="10" as="geometry" />
        </mxCell>
        <mxCell id="fjmunv5LrS3fBDm1KLxQ-7" value="" style="ellipse;whiteSpace=wrap;html=1;aspect=fixed;fontColor=#ffffff;fillColor=#e51400;strokeColor=#B20000;" vertex="1" parent="1">
          <mxGeometry x="340" y="630" width="10" height="10" as="geometry" />
        </mxCell>
        <mxCell id="fjmunv5LrS3fBDm1KLxQ-8" value="" style="ellipse;whiteSpace=wrap;html=1;aspect=fixed;fontColor=#ffffff;fillColor=#e51400;strokeColor=#B20000;" vertex="1" parent="1">
          <mxGeometry x="460" y="630" width="10" height="10" as="geometry" />
        </mxCell>
        <mxCell id="fjmunv5LrS3fBDm1KLxQ-9" value="" style="ellipse;whiteSpace=wrap;html=1;aspect=fixed;fontColor=#ffffff;fillColor=#e51400;strokeColor=#B20000;" vertex="1" parent="1">
          <mxGeometry x="500" y="630" width="10" height="10" as="geometry" />
        </mxCell>
        <mxCell id="fjmunv5LrS3fBDm1KLxQ-10" value="" style="ellipse;whiteSpace=wrap;html=1;aspect=fixed;fontColor=#ffffff;fillColor=#e51400;strokeColor=#B20000;" vertex="1" parent="1">
          <mxGeometry x="520" y="630" width="10" height="10" as="geometry" />
        </mxCell>
        <mxCell id="fjmunv5LrS3fBDm1KLxQ-11" value="" style="ellipse;whiteSpace=wrap;html=1;aspect=fixed;fontColor=#ffffff;fillColor=#e51400;strokeColor=#B20000;" vertex="1" parent="1">
          <mxGeometry x="540" y="630" width="10" height="10" as="geometry" />
        </mxCell>
        <mxCell id="fjmunv5LrS3fBDm1KLxQ-12" value="" style="ellipse;whiteSpace=wrap;html=1;aspect=fixed;fillColor=#9AC7BF;" vertex="1" parent="1">
          <mxGeometry x="560" y="630" width="10" height="10" as="geometry" />
        </mxCell>
        <mxCell id="fjmunv5LrS3fBDm1KLxQ-13" value="" style="ellipse;whiteSpace=wrap;html=1;aspect=fixed;fillColor=#e51400;strokeColor=#B20000;fontColor=#ffffff;" vertex="1" parent="1">
          <mxGeometry x="580" y="630" width="10" height="10" as="geometry" />
        </mxCell>
        <mxCell id="fjmunv5LrS3fBDm1KLxQ-14" value="" style="ellipse;whiteSpace=wrap;html=1;aspect=fixed;fontColor=#ffffff;fillColor=#e51400;strokeColor=#B20000;" vertex="1" parent="1">
          <mxGeometry x="480" y="630" width="10" height="10" as="geometry" />
        </mxCell>
        <mxCell id="fjmunv5LrS3fBDm1KLxQ-15" value="" style="ellipse;whiteSpace=wrap;html=1;aspect=fixed;fillColor=#9AC7BF;" vertex="1" parent="1">
          <mxGeometry x="600" y="630" width="10" height="10" as="geometry" />
        </mxCell>
        <mxCell id="fjmunv5LrS3fBDm1KLxQ-16" value="" style="ellipse;whiteSpace=wrap;html=1;aspect=fixed;fillColor=#e51400;strokeColor=#B20000;fontColor=#ffffff;" vertex="1" parent="1">
          <mxGeometry x="360" y="650" width="10" height="10" as="geometry" />
        </mxCell>
        <mxCell id="fjmunv5LrS3fBDm1KLxQ-17" value="" style="ellipse;whiteSpace=wrap;html=1;aspect=fixed;fillColor=#e51400;strokeColor=#B20000;fontColor=#ffffff;" vertex="1" parent="1">
          <mxGeometry x="380" y="650" width="10" height="10" as="geometry" />
        </mxCell>
        <mxCell id="fjmunv5LrS3fBDm1KLxQ-18" value="" style="ellipse;whiteSpace=wrap;html=1;aspect=fixed;fillColor=#e51400;strokeColor=#B20000;fontColor=#ffffff;" vertex="1" parent="1">
          <mxGeometry x="400" y="650" width="10" height="10" as="geometry" />
        </mxCell>
        <mxCell id="fjmunv5LrS3fBDm1KLxQ-19" value="" style="ellipse;whiteSpace=wrap;html=1;aspect=fixed;fillColor=#e51400;strokeColor=#B20000;fontColor=#ffffff;" vertex="1" parent="1">
          <mxGeometry x="420" y="650" width="10" height="10" as="geometry" />
        </mxCell>
        <mxCell id="fjmunv5LrS3fBDm1KLxQ-20" value="" style="ellipse;whiteSpace=wrap;html=1;aspect=fixed;fillColor=#e51400;strokeColor=#B20000;fontColor=#ffffff;" vertex="1" parent="1">
          <mxGeometry x="440" y="650" width="10" height="10" as="geometry" />
        </mxCell>
        <mxCell id="fjmunv5LrS3fBDm1KLxQ-21" value="" style="ellipse;whiteSpace=wrap;html=1;aspect=fixed;fillColor=#e51400;strokeColor=#B20000;fontColor=#ffffff;" vertex="1" parent="1">
          <mxGeometry x="340" y="650" width="10" height="10" as="geometry" />
        </mxCell>
        <mxCell id="fjmunv5LrS3fBDm1KLxQ-22" value="" style="ellipse;whiteSpace=wrap;html=1;aspect=fixed;fillColor=#e51400;strokeColor=#B20000;fontColor=#ffffff;" vertex="1" parent="1">
          <mxGeometry x="460" y="650" width="10" height="10" as="geometry" />
        </mxCell>
        <mxCell id="fjmunv5LrS3fBDm1KLxQ-23" value="" style="ellipse;whiteSpace=wrap;html=1;aspect=fixed;fillColor=#e51400;strokeColor=#B20000;fontColor=#ffffff;" vertex="1" parent="1">
          <mxGeometry x="500" y="650" width="10" height="10" as="geometry" />
        </mxCell>
        <mxCell id="fjmunv5LrS3fBDm1KLxQ-24" value="" style="ellipse;whiteSpace=wrap;html=1;aspect=fixed;fillColor=#e51400;strokeColor=#B20000;fontColor=#ffffff;" vertex="1" parent="1">
          <mxGeometry x="520" y="650" width="10" height="10" as="geometry" />
        </mxCell>
        <mxCell id="fjmunv5LrS3fBDm1KLxQ-25" value="" style="ellipse;whiteSpace=wrap;html=1;aspect=fixed;fillColor=#e51400;strokeColor=#B20000;fontColor=#ffffff;" vertex="1" parent="1">
          <mxGeometry x="540" y="650" width="10" height="10" as="geometry" />
        </mxCell>
        <mxCell id="fjmunv5LrS3fBDm1KLxQ-26" value="" style="ellipse;whiteSpace=wrap;html=1;aspect=fixed;fillColor=#B3B3B3;" vertex="1" parent="1">
          <mxGeometry x="560" y="650" width="10" height="10" as="geometry" />
        </mxCell>
        <mxCell id="fjmunv5LrS3fBDm1KLxQ-27" value="" style="ellipse;whiteSpace=wrap;html=1;aspect=fixed;fillColor=#e51400;strokeColor=#B20000;fontColor=#ffffff;" vertex="1" parent="1">
          <mxGeometry x="580" y="650" width="10" height="10" as="geometry" />
        </mxCell>
        <mxCell id="fjmunv5LrS3fBDm1KLxQ-28" value="" style="ellipse;whiteSpace=wrap;html=1;aspect=fixed;fillColor=#e51400;strokeColor=#B20000;fontColor=#ffffff;" vertex="1" parent="1">
          <mxGeometry x="480" y="650" width="10" height="10" as="geometry" />
        </mxCell>
        <mxCell id="fjmunv5LrS3fBDm1KLxQ-29" value="" style="ellipse;whiteSpace=wrap;html=1;aspect=fixed;strokeColor=#B20000;fontColor=#ffffff;fillColor=#B3B3B3;" vertex="1" parent="1">
          <mxGeometry x="600" y="650" width="10" height="10" as="geometry" />
        </mxCell>
        <mxCell id="fjmunv5LrS3fBDm1KLxQ-30" value="" style="ellipse;whiteSpace=wrap;html=1;aspect=fixed;fillColor=#e51400;strokeColor=#B20000;fontColor=#ffffff;" vertex="1" parent="1">
          <mxGeometry x="360" y="670" width="10" height="10" as="geometry" />
        </mxCell>
        <mxCell id="fjmunv5LrS3fBDm1KLxQ-31" value="" style="ellipse;whiteSpace=wrap;html=1;aspect=fixed;fillColor=#e51400;strokeColor=#B20000;fontColor=#ffffff;" vertex="1" parent="1">
          <mxGeometry x="380" y="670" width="10" height="10" as="geometry" />
        </mxCell>
        <mxCell id="fjmunv5LrS3fBDm1KLxQ-32" value="" style="ellipse;whiteSpace=wrap;html=1;aspect=fixed;fillColor=#e51400;strokeColor=#B20000;fontColor=#ffffff;" vertex="1" parent="1">
          <mxGeometry x="400" y="670" width="10" height="10" as="geometry" />
        </mxCell>
        <mxCell id="fjmunv5LrS3fBDm1KLxQ-33" value="" style="ellipse;whiteSpace=wrap;html=1;aspect=fixed;fillColor=#e51400;strokeColor=#B20000;fontColor=#ffffff;" vertex="1" parent="1">
          <mxGeometry x="420" y="670" width="10" height="10" as="geometry" />
        </mxCell>
        <mxCell id="fjmunv5LrS3fBDm1KLxQ-34" value="" style="ellipse;whiteSpace=wrap;html=1;aspect=fixed;fillColor=#e51400;strokeColor=#B20000;fontColor=#ffffff;" vertex="1" parent="1">
          <mxGeometry x="440" y="670" width="10" height="10" as="geometry" />
        </mxCell>
        <mxCell id="fjmunv5LrS3fBDm1KLxQ-35" value="" style="ellipse;whiteSpace=wrap;html=1;aspect=fixed;fillColor=#e51400;strokeColor=#B20000;fontColor=#ffffff;" vertex="1" parent="1">
          <mxGeometry x="340" y="670" width="10" height="10" as="geometry" />
        </mxCell>
        <mxCell id="fjmunv5LrS3fBDm1KLxQ-36" value="" style="ellipse;whiteSpace=wrap;html=1;aspect=fixed;fillColor=#e51400;strokeColor=#B20000;fontColor=#ffffff;" vertex="1" parent="1">
          <mxGeometry x="460" y="670" width="10" height="10" as="geometry" />
        </mxCell>
        <mxCell id="fjmunv5LrS3fBDm1KLxQ-37" value="" style="ellipse;whiteSpace=wrap;html=1;aspect=fixed;fillColor=#e51400;strokeColor=#B20000;fontColor=#ffffff;" vertex="1" parent="1">
          <mxGeometry x="500" y="670" width="10" height="10" as="geometry" />
        </mxCell>
        <mxCell id="fjmunv5LrS3fBDm1KLxQ-38" value="" style="ellipse;whiteSpace=wrap;html=1;aspect=fixed;fillColor=#e51400;strokeColor=#B20000;fontColor=#ffffff;" vertex="1" parent="1">
          <mxGeometry x="520" y="670" width="10" height="10" as="geometry" />
        </mxCell>
        <mxCell id="fjmunv5LrS3fBDm1KLxQ-39" value="" style="ellipse;whiteSpace=wrap;html=1;aspect=fixed;fillColor=#e51400;strokeColor=#B20000;fontColor=#ffffff;" vertex="1" parent="1">
          <mxGeometry x="540" y="670" width="10" height="10" as="geometry" />
        </mxCell>
        <mxCell id="fjmunv5LrS3fBDm1KLxQ-40" value="" style="ellipse;whiteSpace=wrap;html=1;aspect=fixed;fillColor=#B3B3B3;" vertex="1" parent="1">
          <mxGeometry x="560" y="670" width="10" height="10" as="geometry" />
        </mxCell>
        <mxCell id="fjmunv5LrS3fBDm1KLxQ-41" value="" style="ellipse;whiteSpace=wrap;html=1;aspect=fixed;strokeColor=#B20000;fillColor=#e51400;fontColor=#ffffff;" vertex="1" parent="1">
          <mxGeometry x="580" y="670" width="10" height="10" as="geometry" />
        </mxCell>
        <mxCell id="fjmunv5LrS3fBDm1KLxQ-42" value="" style="ellipse;whiteSpace=wrap;html=1;aspect=fixed;fillColor=#e51400;strokeColor=#B20000;fontColor=#ffffff;" vertex="1" parent="1">
          <mxGeometry x="480" y="670" width="10" height="10" as="geometry" />
        </mxCell>
        <mxCell id="fjmunv5LrS3fBDm1KLxQ-43" value="" style="ellipse;whiteSpace=wrap;html=1;aspect=fixed;strokeColor=#B20000;fontColor=#ffffff;fillColor=#B3B3B3;" vertex="1" parent="1">
          <mxGeometry x="600" y="670" width="10" height="10" as="geometry" />
        </mxCell>
        <mxCell id="fjmunv5LrS3fBDm1KLxQ-44" value="" style="ellipse;whiteSpace=wrap;html=1;aspect=fixed;fillColor=#e51400;strokeColor=#B20000;fontColor=#ffffff;" vertex="1" parent="1">
          <mxGeometry x="360" y="690" width="10" height="10" as="geometry" />
        </mxCell>
        <mxCell id="fjmunv5LrS3fBDm1KLxQ-45" value="" style="ellipse;whiteSpace=wrap;html=1;aspect=fixed;fillColor=#e51400;strokeColor=#B20000;fontColor=#ffffff;" vertex="1" parent="1">
          <mxGeometry x="380" y="690" width="10" height="10" as="geometry" />
        </mxCell>
        <mxCell id="fjmunv5LrS3fBDm1KLxQ-46" value="" style="ellipse;whiteSpace=wrap;html=1;aspect=fixed;fillColor=#e51400;strokeColor=#B20000;fontColor=#ffffff;" vertex="1" parent="1">
          <mxGeometry x="400" y="690" width="10" height="10" as="geometry" />
        </mxCell>
        <mxCell id="fjmunv5LrS3fBDm1KLxQ-47" value="" style="ellipse;whiteSpace=wrap;html=1;aspect=fixed;fillColor=#e51400;strokeColor=#B20000;fontColor=#ffffff;" vertex="1" parent="1">
          <mxGeometry x="420" y="690" width="10" height="10" as="geometry" />
        </mxCell>
        <mxCell id="fjmunv5LrS3fBDm1KLxQ-48" value="" style="ellipse;whiteSpace=wrap;html=1;aspect=fixed;fillColor=#e51400;strokeColor=#B20000;fontColor=#ffffff;" vertex="1" parent="1">
          <mxGeometry x="440" y="690" width="10" height="10" as="geometry" />
        </mxCell>
        <mxCell id="fjmunv5LrS3fBDm1KLxQ-49" value="" style="ellipse;whiteSpace=wrap;html=1;aspect=fixed;fillColor=#e51400;strokeColor=#B20000;fontColor=#ffffff;" vertex="1" parent="1">
          <mxGeometry x="340" y="690" width="10" height="10" as="geometry" />
        </mxCell>
        <mxCell id="fjmunv5LrS3fBDm1KLxQ-50" value="" style="ellipse;whiteSpace=wrap;html=1;aspect=fixed;fillColor=#e51400;strokeColor=#B20000;fontColor=#ffffff;" vertex="1" parent="1">
          <mxGeometry x="460" y="690" width="10" height="10" as="geometry" />
        </mxCell>
        <mxCell id="fjmunv5LrS3fBDm1KLxQ-51" value="" style="ellipse;whiteSpace=wrap;html=1;aspect=fixed;fillColor=#e51400;strokeColor=#B20000;fontColor=#ffffff;" vertex="1" parent="1">
          <mxGeometry x="500" y="690" width="10" height="10" as="geometry" />
        </mxCell>
        <mxCell id="fjmunv5LrS3fBDm1KLxQ-52" value="" style="ellipse;whiteSpace=wrap;html=1;aspect=fixed;fillColor=#e51400;strokeColor=#B20000;fontColor=#ffffff;" vertex="1" parent="1">
          <mxGeometry x="520" y="690" width="10" height="10" as="geometry" />
        </mxCell>
        <mxCell id="fjmunv5LrS3fBDm1KLxQ-53" value="" style="ellipse;whiteSpace=wrap;html=1;aspect=fixed;fillColor=#e51400;strokeColor=#B20000;fontColor=#ffffff;" vertex="1" parent="1">
          <mxGeometry x="540" y="690" width="10" height="10" as="geometry" />
        </mxCell>
        <mxCell id="fjmunv5LrS3fBDm1KLxQ-54" value="" style="ellipse;whiteSpace=wrap;html=1;aspect=fixed;fillColor=#B3B3B3;" vertex="1" parent="1">
          <mxGeometry x="560" y="690" width="10" height="10" as="geometry" />
        </mxCell>
        <mxCell id="fjmunv5LrS3fBDm1KLxQ-55" value="" style="ellipse;whiteSpace=wrap;html=1;aspect=fixed;fillColor=#e51400;strokeColor=#B20000;fontColor=#ffffff;" vertex="1" parent="1">
          <mxGeometry x="580" y="690" width="10" height="10" as="geometry" />
        </mxCell>
        <mxCell id="fjmunv5LrS3fBDm1KLxQ-56" value="" style="ellipse;whiteSpace=wrap;html=1;aspect=fixed;fillColor=#e51400;strokeColor=#B20000;fontColor=#ffffff;" vertex="1" parent="1">
          <mxGeometry x="480" y="690" width="10" height="10" as="geometry" />
        </mxCell>
        <mxCell id="fjmunv5LrS3fBDm1KLxQ-57" value="" style="ellipse;whiteSpace=wrap;html=1;aspect=fixed;strokeColor=#B20000;fontColor=#ffffff;fillColor=#B3B3B3;" vertex="1" parent="1">
          <mxGeometry x="600" y="690" width="10" height="10" as="geometry" />
        </mxCell>
        <mxCell id="fjmunv5LrS3fBDm1KLxQ-58" value="" style="ellipse;whiteSpace=wrap;html=1;aspect=fixed;fillColor=#e51400;strokeColor=#B20000;fontColor=#ffffff;" vertex="1" parent="1">
          <mxGeometry x="360" y="710" width="10" height="10" as="geometry" />
        </mxCell>
        <mxCell id="fjmunv5LrS3fBDm1KLxQ-59" value="" style="ellipse;whiteSpace=wrap;html=1;aspect=fixed;fillColor=#e51400;strokeColor=#B20000;fontColor=#ffffff;" vertex="1" parent="1">
          <mxGeometry x="380" y="710" width="10" height="10" as="geometry" />
        </mxCell>
        <mxCell id="fjmunv5LrS3fBDm1KLxQ-60" value="" style="ellipse;whiteSpace=wrap;html=1;aspect=fixed;fillColor=#e51400;strokeColor=#B20000;fontColor=#ffffff;" vertex="1" parent="1">
          <mxGeometry x="400" y="710" width="10" height="10" as="geometry" />
        </mxCell>
        <mxCell id="fjmunv5LrS3fBDm1KLxQ-61" value="" style="ellipse;whiteSpace=wrap;html=1;aspect=fixed;fillColor=#e51400;strokeColor=#B20000;fontColor=#ffffff;" vertex="1" parent="1">
          <mxGeometry x="420" y="710" width="10" height="10" as="geometry" />
        </mxCell>
        <mxCell id="fjmunv5LrS3fBDm1KLxQ-62" value="" style="ellipse;whiteSpace=wrap;html=1;aspect=fixed;fillColor=#e51400;strokeColor=#B20000;fontColor=#ffffff;" vertex="1" parent="1">
          <mxGeometry x="440" y="710" width="10" height="10" as="geometry" />
        </mxCell>
        <mxCell id="fjmunv5LrS3fBDm1KLxQ-63" value="" style="ellipse;whiteSpace=wrap;html=1;aspect=fixed;fillColor=#e51400;strokeColor=#B20000;fontColor=#ffffff;" vertex="1" parent="1">
          <mxGeometry x="340" y="710" width="10" height="10" as="geometry" />
        </mxCell>
        <mxCell id="fjmunv5LrS3fBDm1KLxQ-64" value="" style="ellipse;whiteSpace=wrap;html=1;aspect=fixed;fillColor=#e51400;strokeColor=#B20000;fontColor=#ffffff;" vertex="1" parent="1">
          <mxGeometry x="460" y="710" width="10" height="10" as="geometry" />
        </mxCell>
        <mxCell id="fjmunv5LrS3fBDm1KLxQ-65" value="" style="ellipse;whiteSpace=wrap;html=1;aspect=fixed;fillColor=#e51400;strokeColor=#B20000;fontColor=#ffffff;" vertex="1" parent="1">
          <mxGeometry x="500" y="710" width="10" height="10" as="geometry" />
        </mxCell>
        <mxCell id="fjmunv5LrS3fBDm1KLxQ-66" value="" style="ellipse;whiteSpace=wrap;html=1;aspect=fixed;fillColor=#e51400;strokeColor=#B20000;fontColor=#ffffff;" vertex="1" parent="1">
          <mxGeometry x="520" y="710" width="10" height="10" as="geometry" />
        </mxCell>
        <mxCell id="fjmunv5LrS3fBDm1KLxQ-67" value="" style="ellipse;whiteSpace=wrap;html=1;aspect=fixed;fillColor=#e51400;strokeColor=#B20000;fontColor=#ffffff;" vertex="1" parent="1">
          <mxGeometry x="540" y="710" width="10" height="10" as="geometry" />
        </mxCell>
        <mxCell id="fjmunv5LrS3fBDm1KLxQ-68" value="" style="ellipse;whiteSpace=wrap;html=1;aspect=fixed;fillColor=#B3B3B3;" vertex="1" parent="1">
          <mxGeometry x="560" y="710" width="10" height="10" as="geometry" />
        </mxCell>
        <mxCell id="fjmunv5LrS3fBDm1KLxQ-69" value="" style="ellipse;whiteSpace=wrap;html=1;aspect=fixed;fillColor=#e51400;strokeColor=#B20000;fontColor=#ffffff;" vertex="1" parent="1">
          <mxGeometry x="580" y="710" width="10" height="10" as="geometry" />
        </mxCell>
        <mxCell id="fjmunv5LrS3fBDm1KLxQ-70" value="" style="ellipse;whiteSpace=wrap;html=1;aspect=fixed;fillColor=#e51400;strokeColor=#B20000;fontColor=#ffffff;" vertex="1" parent="1">
          <mxGeometry x="480" y="710" width="10" height="10" as="geometry" />
        </mxCell>
        <mxCell id="fjmunv5LrS3fBDm1KLxQ-71" value="" style="ellipse;whiteSpace=wrap;html=1;aspect=fixed;fillColor=#B3B3B3;" vertex="1" parent="1">
          <mxGeometry x="600" y="710" width="10" height="10" as="geometry" />
        </mxCell>
        <mxCell id="fjmunv5LrS3fBDm1KLxQ-72" value="" style="ellipse;whiteSpace=wrap;html=1;aspect=fixed;fillColor=#e51400;strokeColor=#B20000;fontColor=#ffffff;" vertex="1" parent="1">
          <mxGeometry x="360" y="730" width="10" height="10" as="geometry" />
        </mxCell>
        <mxCell id="fjmunv5LrS3fBDm1KLxQ-73" value="" style="ellipse;whiteSpace=wrap;html=1;aspect=fixed;fillColor=#e51400;strokeColor=#B20000;fontColor=#ffffff;" vertex="1" parent="1">
          <mxGeometry x="380" y="730" width="10" height="10" as="geometry" />
        </mxCell>
        <mxCell id="fjmunv5LrS3fBDm1KLxQ-74" value="" style="ellipse;whiteSpace=wrap;html=1;aspect=fixed;fillColor=#e51400;strokeColor=#B20000;fontColor=#ffffff;" vertex="1" parent="1">
          <mxGeometry x="400" y="730" width="10" height="10" as="geometry" />
        </mxCell>
        <mxCell id="fjmunv5LrS3fBDm1KLxQ-75" value="" style="ellipse;whiteSpace=wrap;html=1;aspect=fixed;fillColor=#e51400;strokeColor=#B20000;fontColor=#ffffff;" vertex="1" parent="1">
          <mxGeometry x="420" y="730" width="10" height="10" as="geometry" />
        </mxCell>
        <mxCell id="fjmunv5LrS3fBDm1KLxQ-76" value="" style="ellipse;whiteSpace=wrap;html=1;aspect=fixed;fillColor=#e51400;strokeColor=#B20000;fontColor=#ffffff;" vertex="1" parent="1">
          <mxGeometry x="440" y="730" width="10" height="10" as="geometry" />
        </mxCell>
        <mxCell id="fjmunv5LrS3fBDm1KLxQ-77" value="" style="ellipse;whiteSpace=wrap;html=1;aspect=fixed;fillColor=#e51400;strokeColor=#B20000;fontColor=#ffffff;" vertex="1" parent="1">
          <mxGeometry x="340" y="730" width="10" height="10" as="geometry" />
        </mxCell>
        <mxCell id="fjmunv5LrS3fBDm1KLxQ-78" value="" style="ellipse;whiteSpace=wrap;html=1;aspect=fixed;fillColor=#e51400;strokeColor=#B20000;fontColor=#ffffff;" vertex="1" parent="1">
          <mxGeometry x="460" y="730" width="10" height="10" as="geometry" />
        </mxCell>
        <mxCell id="fjmunv5LrS3fBDm1KLxQ-79" value="" style="ellipse;whiteSpace=wrap;html=1;aspect=fixed;fillColor=#e51400;strokeColor=#B20000;fontColor=#ffffff;" vertex="1" parent="1">
          <mxGeometry x="500" y="730" width="10" height="10" as="geometry" />
        </mxCell>
        <mxCell id="fjmunv5LrS3fBDm1KLxQ-80" value="" style="ellipse;whiteSpace=wrap;html=1;aspect=fixed;fillColor=#e51400;strokeColor=#B20000;fontColor=#ffffff;" vertex="1" parent="1">
          <mxGeometry x="520" y="730" width="10" height="10" as="geometry" />
        </mxCell>
        <mxCell id="fjmunv5LrS3fBDm1KLxQ-81" value="" style="ellipse;whiteSpace=wrap;html=1;aspect=fixed;fillColor=#e51400;strokeColor=#B20000;fontColor=#ffffff;" vertex="1" parent="1">
          <mxGeometry x="540" y="730" width="10" height="10" as="geometry" />
        </mxCell>
        <mxCell id="fjmunv5LrS3fBDm1KLxQ-82" value="" style="ellipse;whiteSpace=wrap;html=1;aspect=fixed;fillColor=#B3B3B3;" vertex="1" parent="1">
          <mxGeometry x="560" y="730" width="10" height="10" as="geometry" />
        </mxCell>
        <mxCell id="fjmunv5LrS3fBDm1KLxQ-83" value="" style="ellipse;whiteSpace=wrap;html=1;aspect=fixed;fillColor=#e51400;strokeColor=#B20000;fontColor=#ffffff;" vertex="1" parent="1">
          <mxGeometry x="580" y="730" width="10" height="10" as="geometry" />
        </mxCell>
        <mxCell id="fjmunv5LrS3fBDm1KLxQ-84" value="" style="ellipse;whiteSpace=wrap;html=1;aspect=fixed;fillColor=#e51400;strokeColor=#B20000;fontColor=#ffffff;" vertex="1" parent="1">
          <mxGeometry x="480" y="730" width="10" height="10" as="geometry" />
        </mxCell>
        <mxCell id="fjmunv5LrS3fBDm1KLxQ-85" value="" style="ellipse;whiteSpace=wrap;html=1;aspect=fixed;fillColor=#B3B3B3;" vertex="1" parent="1">
          <mxGeometry x="600" y="730" width="10" height="10" as="geometry" />
        </mxCell>
        <mxCell id="fjmunv5LrS3fBDm1KLxQ-86" value="" style="ellipse;whiteSpace=wrap;html=1;aspect=fixed;fillColor=#e51400;strokeColor=#B20000;fontColor=#ffffff;" vertex="1" parent="1">
          <mxGeometry x="360" y="750" width="10" height="10" as="geometry" />
        </mxCell>
        <mxCell id="fjmunv5LrS3fBDm1KLxQ-87" value="" style="ellipse;whiteSpace=wrap;html=1;aspect=fixed;fillColor=#e51400;strokeColor=#B20000;fontColor=#ffffff;" vertex="1" parent="1">
          <mxGeometry x="380" y="750" width="10" height="10" as="geometry" />
        </mxCell>
        <mxCell id="fjmunv5LrS3fBDm1KLxQ-88" value="" style="ellipse;whiteSpace=wrap;html=1;aspect=fixed;fillColor=#e51400;strokeColor=#B20000;fontColor=#ffffff;" vertex="1" parent="1">
          <mxGeometry x="400" y="750" width="10" height="10" as="geometry" />
        </mxCell>
        <mxCell id="fjmunv5LrS3fBDm1KLxQ-89" value="" style="ellipse;whiteSpace=wrap;html=1;aspect=fixed;fillColor=#e51400;strokeColor=#B20000;fontColor=#ffffff;" vertex="1" parent="1">
          <mxGeometry x="420" y="750" width="10" height="10" as="geometry" />
        </mxCell>
        <mxCell id="fjmunv5LrS3fBDm1KLxQ-90" value="" style="ellipse;whiteSpace=wrap;html=1;aspect=fixed;fillColor=#e51400;strokeColor=#B20000;fontColor=#ffffff;" vertex="1" parent="1">
          <mxGeometry x="440" y="750" width="10" height="10" as="geometry" />
        </mxCell>
        <mxCell id="fjmunv5LrS3fBDm1KLxQ-91" value="" style="ellipse;whiteSpace=wrap;html=1;aspect=fixed;fillColor=#e51400;strokeColor=#B20000;fontColor=#ffffff;" vertex="1" parent="1">
          <mxGeometry x="340" y="750" width="10" height="10" as="geometry" />
        </mxCell>
        <mxCell id="fjmunv5LrS3fBDm1KLxQ-92" value="" style="ellipse;whiteSpace=wrap;html=1;aspect=fixed;fillColor=#e51400;strokeColor=#B20000;fontColor=#ffffff;" vertex="1" parent="1">
          <mxGeometry x="460" y="750" width="10" height="10" as="geometry" />
        </mxCell>
        <mxCell id="fjmunv5LrS3fBDm1KLxQ-93" value="" style="ellipse;whiteSpace=wrap;html=1;aspect=fixed;fillColor=#e51400;strokeColor=#B20000;fontColor=#ffffff;" vertex="1" parent="1">
          <mxGeometry x="500" y="750" width="10" height="10" as="geometry" />
        </mxCell>
        <mxCell id="fjmunv5LrS3fBDm1KLxQ-94" value="" style="ellipse;whiteSpace=wrap;html=1;aspect=fixed;fillColor=#e51400;strokeColor=#B20000;fontColor=#ffffff;" vertex="1" parent="1">
          <mxGeometry x="520" y="750" width="10" height="10" as="geometry" />
        </mxCell>
        <mxCell id="fjmunv5LrS3fBDm1KLxQ-95" value="" style="ellipse;whiteSpace=wrap;html=1;aspect=fixed;fillColor=#e51400;strokeColor=#B20000;fontColor=#ffffff;" vertex="1" parent="1">
          <mxGeometry x="540" y="750" width="10" height="10" as="geometry" />
        </mxCell>
        <mxCell id="fjmunv5LrS3fBDm1KLxQ-96" value="" style="ellipse;whiteSpace=wrap;html=1;aspect=fixed;fillColor=#B3B3B3;" vertex="1" parent="1">
          <mxGeometry x="560" y="750" width="10" height="10" as="geometry" />
        </mxCell>
        <mxCell id="fjmunv5LrS3fBDm1KLxQ-97" value="" style="ellipse;whiteSpace=wrap;html=1;aspect=fixed;fillColor=#e51400;strokeColor=#B20000;fontColor=#ffffff;" vertex="1" parent="1">
          <mxGeometry x="580" y="750" width="10" height="10" as="geometry" />
        </mxCell>
        <mxCell id="fjmunv5LrS3fBDm1KLxQ-98" value="" style="ellipse;whiteSpace=wrap;html=1;aspect=fixed;fillColor=#e51400;strokeColor=#B20000;fontColor=#ffffff;" vertex="1" parent="1">
          <mxGeometry x="480" y="750" width="10" height="10" as="geometry" />
        </mxCell>
        <mxCell id="fjmunv5LrS3fBDm1KLxQ-99" value="" style="ellipse;whiteSpace=wrap;html=1;aspect=fixed;fillColor=#B3B3B3;" vertex="1" parent="1">
          <mxGeometry x="600" y="750" width="10" height="10" as="geometry" />
        </mxCell>
        <mxCell id="fjmunv5LrS3fBDm1KLxQ-100" value="" style="ellipse;whiteSpace=wrap;html=1;aspect=fixed;fillColor=#e51400;strokeColor=#B20000;fontColor=#ffffff;" vertex="1" parent="1">
          <mxGeometry x="360" y="770" width="10" height="10" as="geometry" />
        </mxCell>
        <mxCell id="fjmunv5LrS3fBDm1KLxQ-101" value="" style="ellipse;whiteSpace=wrap;html=1;aspect=fixed;fillColor=#e51400;strokeColor=#B20000;fontColor=#ffffff;" vertex="1" parent="1">
          <mxGeometry x="380" y="770" width="10" height="10" as="geometry" />
        </mxCell>
        <mxCell id="fjmunv5LrS3fBDm1KLxQ-102" value="" style="ellipse;whiteSpace=wrap;html=1;aspect=fixed;fillColor=#e51400;strokeColor=#B20000;fontColor=#ffffff;" vertex="1" parent="1">
          <mxGeometry x="400" y="770" width="10" height="10" as="geometry" />
        </mxCell>
        <mxCell id="fjmunv5LrS3fBDm1KLxQ-103" value="" style="ellipse;whiteSpace=wrap;html=1;aspect=fixed;fillColor=#e51400;strokeColor=#B20000;fontColor=#ffffff;" vertex="1" parent="1">
          <mxGeometry x="420" y="770" width="10" height="10" as="geometry" />
        </mxCell>
        <mxCell id="fjmunv5LrS3fBDm1KLxQ-104" value="" style="ellipse;whiteSpace=wrap;html=1;aspect=fixed;fillColor=#e51400;strokeColor=#B20000;fontColor=#ffffff;" vertex="1" parent="1">
          <mxGeometry x="440" y="770" width="10" height="10" as="geometry" />
        </mxCell>
        <mxCell id="fjmunv5LrS3fBDm1KLxQ-105" value="" style="ellipse;whiteSpace=wrap;html=1;aspect=fixed;fillColor=#e51400;strokeColor=#B20000;fontColor=#ffffff;" vertex="1" parent="1">
          <mxGeometry x="340" y="770" width="10" height="10" as="geometry" />
        </mxCell>
        <mxCell id="fjmunv5LrS3fBDm1KLxQ-106" value="" style="ellipse;whiteSpace=wrap;html=1;aspect=fixed;fillColor=#e51400;strokeColor=#B20000;fontColor=#ffffff;" vertex="1" parent="1">
          <mxGeometry x="460" y="770" width="10" height="10" as="geometry" />
        </mxCell>
        <mxCell id="fjmunv5LrS3fBDm1KLxQ-107" value="" style="ellipse;whiteSpace=wrap;html=1;aspect=fixed;fillColor=#e51400;strokeColor=#B20000;fontColor=#ffffff;" vertex="1" parent="1">
          <mxGeometry x="500" y="770" width="10" height="10" as="geometry" />
        </mxCell>
        <mxCell id="fjmunv5LrS3fBDm1KLxQ-108" value="" style="ellipse;whiteSpace=wrap;html=1;aspect=fixed;fillColor=#e51400;strokeColor=#B20000;fontColor=#ffffff;" vertex="1" parent="1">
          <mxGeometry x="520" y="770" width="10" height="10" as="geometry" />
        </mxCell>
        <mxCell id="fjmunv5LrS3fBDm1KLxQ-109" value="" style="ellipse;whiteSpace=wrap;html=1;aspect=fixed;fillColor=#e51400;strokeColor=#B20000;fontColor=#ffffff;" vertex="1" parent="1">
          <mxGeometry x="540" y="770" width="10" height="10" as="geometry" />
        </mxCell>
        <mxCell id="fjmunv5LrS3fBDm1KLxQ-110" value="" style="ellipse;whiteSpace=wrap;html=1;aspect=fixed;fillColor=#e51400;strokeColor=#B20000;fontColor=#ffffff;" vertex="1" parent="1">
          <mxGeometry x="560" y="770" width="10" height="10" as="geometry" />
        </mxCell>
        <mxCell id="fjmunv5LrS3fBDm1KLxQ-111" value="" style="ellipse;whiteSpace=wrap;html=1;aspect=fixed;fillColor=#e51400;strokeColor=#B20000;fontColor=#ffffff;" vertex="1" parent="1">
          <mxGeometry x="580" y="770" width="10" height="10" as="geometry" />
        </mxCell>
        <mxCell id="fjmunv5LrS3fBDm1KLxQ-112" value="" style="ellipse;whiteSpace=wrap;html=1;aspect=fixed;fillColor=#e51400;strokeColor=#B20000;fontColor=#ffffff;" vertex="1" parent="1">
          <mxGeometry x="480" y="770" width="10" height="10" as="geometry" />
        </mxCell>
        <mxCell id="fjmunv5LrS3fBDm1KLxQ-113" value="" style="ellipse;whiteSpace=wrap;html=1;aspect=fixed;fillColor=#B3B3B3;" vertex="1" parent="1">
          <mxGeometry x="600" y="770" width="10" height="10" as="geometry" />
        </mxCell>
        <mxCell id="fjmunv5LrS3fBDm1KLxQ-114" value="" style="ellipse;whiteSpace=wrap;html=1;aspect=fixed;fillColor=#e51400;strokeColor=#B20000;fontColor=#ffffff;" vertex="1" parent="1">
          <mxGeometry x="360" y="790" width="10" height="10" as="geometry" />
        </mxCell>
        <mxCell id="fjmunv5LrS3fBDm1KLxQ-115" value="" style="ellipse;whiteSpace=wrap;html=1;aspect=fixed;fillColor=#e51400;strokeColor=#B20000;fontColor=#ffffff;" vertex="1" parent="1">
          <mxGeometry x="380" y="790" width="10" height="10" as="geometry" />
        </mxCell>
        <mxCell id="fjmunv5LrS3fBDm1KLxQ-116" value="" style="ellipse;whiteSpace=wrap;html=1;aspect=fixed;fillColor=#e51400;strokeColor=#B20000;fontColor=#ffffff;" vertex="1" parent="1">
          <mxGeometry x="400" y="790" width="10" height="10" as="geometry" />
        </mxCell>
        <mxCell id="fjmunv5LrS3fBDm1KLxQ-117" value="" style="ellipse;whiteSpace=wrap;html=1;aspect=fixed;fillColor=#e51400;strokeColor=#B20000;fontColor=#ffffff;" vertex="1" parent="1">
          <mxGeometry x="420" y="790" width="10" height="10" as="geometry" />
        </mxCell>
        <mxCell id="fjmunv5LrS3fBDm1KLxQ-118" value="" style="ellipse;whiteSpace=wrap;html=1;aspect=fixed;fillColor=#e51400;strokeColor=#B20000;fontColor=#ffffff;" vertex="1" parent="1">
          <mxGeometry x="440" y="790" width="10" height="10" as="geometry" />
        </mxCell>
        <mxCell id="fjmunv5LrS3fBDm1KLxQ-119" value="" style="ellipse;whiteSpace=wrap;html=1;aspect=fixed;fillColor=#e51400;strokeColor=#B20000;fontColor=#ffffff;" vertex="1" parent="1">
          <mxGeometry x="340" y="790" width="10" height="10" as="geometry" />
        </mxCell>
        <mxCell id="fjmunv5LrS3fBDm1KLxQ-120" value="" style="ellipse;whiteSpace=wrap;html=1;aspect=fixed;fillColor=#e51400;strokeColor=#B20000;fontColor=#ffffff;" vertex="1" parent="1">
          <mxGeometry x="460" y="790" width="10" height="10" as="geometry" />
        </mxCell>
        <mxCell id="fjmunv5LrS3fBDm1KLxQ-121" value="" style="ellipse;whiteSpace=wrap;html=1;aspect=fixed;fillColor=#e51400;strokeColor=#B20000;fontColor=#ffffff;" vertex="1" parent="1">
          <mxGeometry x="500" y="790" width="10" height="10" as="geometry" />
        </mxCell>
        <mxCell id="fjmunv5LrS3fBDm1KLxQ-122" value="" style="ellipse;whiteSpace=wrap;html=1;aspect=fixed;fillColor=#e51400;strokeColor=#B20000;fontColor=#ffffff;" vertex="1" parent="1">
          <mxGeometry x="520" y="790" width="10" height="10" as="geometry" />
        </mxCell>
        <mxCell id="fjmunv5LrS3fBDm1KLxQ-123" value="" style="ellipse;whiteSpace=wrap;html=1;aspect=fixed;fillColor=#e51400;strokeColor=#B20000;fontColor=#ffffff;" vertex="1" parent="1">
          <mxGeometry x="540" y="790" width="10" height="10" as="geometry" />
        </mxCell>
        <mxCell id="fjmunv5LrS3fBDm1KLxQ-124" value="" style="ellipse;whiteSpace=wrap;html=1;aspect=fixed;fillColor=#e51400;strokeColor=#B20000;fontColor=#ffffff;" vertex="1" parent="1">
          <mxGeometry x="560" y="790" width="10" height="10" as="geometry" />
        </mxCell>
        <mxCell id="fjmunv5LrS3fBDm1KLxQ-125" value="" style="ellipse;whiteSpace=wrap;html=1;aspect=fixed;fillColor=#e51400;strokeColor=#B20000;fontColor=#ffffff;" vertex="1" parent="1">
          <mxGeometry x="580" y="790" width="10" height="10" as="geometry" />
        </mxCell>
        <mxCell id="fjmunv5LrS3fBDm1KLxQ-126" value="" style="ellipse;whiteSpace=wrap;html=1;aspect=fixed;fillColor=#e51400;strokeColor=#B20000;fontColor=#ffffff;" vertex="1" parent="1">
          <mxGeometry x="480" y="790" width="10" height="10" as="geometry" />
        </mxCell>
        <mxCell id="fjmunv5LrS3fBDm1KLxQ-127" value="" style="ellipse;whiteSpace=wrap;html=1;aspect=fixed;fillColor=#B3B3B3;" vertex="1" parent="1">
          <mxGeometry x="600" y="790" width="10" height="10" as="geometry" />
        </mxCell>
        <mxCell id="fjmunv5LrS3fBDm1KLxQ-128" value="" style="ellipse;whiteSpace=wrap;html=1;aspect=fixed;fillColor=#e51400;strokeColor=#B20000;fontColor=#ffffff;" vertex="1" parent="1">
          <mxGeometry x="360" y="810" width="10" height="10" as="geometry" />
        </mxCell>
        <mxCell id="fjmunv5LrS3fBDm1KLxQ-129" value="" style="ellipse;whiteSpace=wrap;html=1;aspect=fixed;fillColor=#e51400;strokeColor=#B20000;fontColor=#ffffff;" vertex="1" parent="1">
          <mxGeometry x="380" y="810" width="10" height="10" as="geometry" />
        </mxCell>
        <mxCell id="fjmunv5LrS3fBDm1KLxQ-130" value="" style="ellipse;whiteSpace=wrap;html=1;aspect=fixed;fillColor=#e51400;strokeColor=#B20000;fontColor=#ffffff;" vertex="1" parent="1">
          <mxGeometry x="400" y="810" width="10" height="10" as="geometry" />
        </mxCell>
        <mxCell id="fjmunv5LrS3fBDm1KLxQ-131" value="" style="ellipse;whiteSpace=wrap;html=1;aspect=fixed;fillColor=#e51400;strokeColor=#B20000;fontColor=#ffffff;" vertex="1" parent="1">
          <mxGeometry x="420" y="810" width="10" height="10" as="geometry" />
        </mxCell>
        <mxCell id="fjmunv5LrS3fBDm1KLxQ-132" value="" style="ellipse;whiteSpace=wrap;html=1;aspect=fixed;fillColor=#e51400;strokeColor=#B20000;fontColor=#ffffff;" vertex="1" parent="1">
          <mxGeometry x="440" y="810" width="10" height="10" as="geometry" />
        </mxCell>
        <mxCell id="fjmunv5LrS3fBDm1KLxQ-133" value="" style="ellipse;whiteSpace=wrap;html=1;aspect=fixed;fillColor=#e51400;strokeColor=#B20000;fontColor=#ffffff;" vertex="1" parent="1">
          <mxGeometry x="340" y="810" width="10" height="10" as="geometry" />
        </mxCell>
        <mxCell id="fjmunv5LrS3fBDm1KLxQ-134" value="" style="ellipse;whiteSpace=wrap;html=1;aspect=fixed;fillColor=#e51400;strokeColor=#B20000;fontColor=#ffffff;" vertex="1" parent="1">
          <mxGeometry x="460" y="810" width="10" height="10" as="geometry" />
        </mxCell>
        <mxCell id="fjmunv5LrS3fBDm1KLxQ-135" value="" style="ellipse;whiteSpace=wrap;html=1;aspect=fixed;fillColor=#e51400;strokeColor=#B20000;fontColor=#ffffff;" vertex="1" parent="1">
          <mxGeometry x="500" y="810" width="10" height="10" as="geometry" />
        </mxCell>
        <mxCell id="fjmunv5LrS3fBDm1KLxQ-136" value="" style="ellipse;whiteSpace=wrap;html=1;aspect=fixed;fillColor=#e51400;strokeColor=#B20000;fontColor=#ffffff;" vertex="1" parent="1">
          <mxGeometry x="520" y="810" width="10" height="10" as="geometry" />
        </mxCell>
        <mxCell id="fjmunv5LrS3fBDm1KLxQ-137" value="" style="ellipse;whiteSpace=wrap;html=1;aspect=fixed;fillColor=#e51400;strokeColor=#B20000;fontColor=#ffffff;" vertex="1" parent="1">
          <mxGeometry x="540" y="810" width="10" height="10" as="geometry" />
        </mxCell>
        <mxCell id="fjmunv5LrS3fBDm1KLxQ-138" value="" style="ellipse;whiteSpace=wrap;html=1;aspect=fixed;fillColor=#e51400;strokeColor=#B20000;fontColor=#ffffff;" vertex="1" parent="1">
          <mxGeometry x="560" y="810" width="10" height="10" as="geometry" />
        </mxCell>
        <mxCell id="fjmunv5LrS3fBDm1KLxQ-139" value="" style="ellipse;whiteSpace=wrap;html=1;aspect=fixed;fillColor=#e51400;strokeColor=#B20000;fontColor=#ffffff;" vertex="1" parent="1">
          <mxGeometry x="580" y="810" width="10" height="10" as="geometry" />
        </mxCell>
        <mxCell id="fjmunv5LrS3fBDm1KLxQ-140" value="" style="ellipse;whiteSpace=wrap;html=1;aspect=fixed;fillColor=#e51400;strokeColor=#B20000;fontColor=#ffffff;" vertex="1" parent="1">
          <mxGeometry x="480" y="810" width="10" height="10" as="geometry" />
        </mxCell>
        <mxCell id="fjmunv5LrS3fBDm1KLxQ-141" value="" style="ellipse;whiteSpace=wrap;html=1;aspect=fixed;fillColor=#B3B3B3;" vertex="1" parent="1">
          <mxGeometry x="600" y="810" width="10" height="10" as="geometry" />
        </mxCell>
        <mxCell id="fjmunv5LrS3fBDm1KLxQ-142" value="" style="ellipse;whiteSpace=wrap;html=1;aspect=fixed;fillColor=#e51400;strokeColor=#B20000;fontColor=#ffffff;" vertex="1" parent="1">
          <mxGeometry x="360" y="830" width="10" height="10" as="geometry" />
        </mxCell>
        <mxCell id="fjmunv5LrS3fBDm1KLxQ-143" value="" style="ellipse;whiteSpace=wrap;html=1;aspect=fixed;fillColor=#e51400;strokeColor=#B20000;fontColor=#ffffff;" vertex="1" parent="1">
          <mxGeometry x="380" y="830" width="10" height="10" as="geometry" />
        </mxCell>
        <mxCell id="fjmunv5LrS3fBDm1KLxQ-144" value="" style="ellipse;whiteSpace=wrap;html=1;aspect=fixed;fillColor=#e51400;strokeColor=#B20000;fontColor=#ffffff;" vertex="1" parent="1">
          <mxGeometry x="400" y="830" width="10" height="10" as="geometry" />
        </mxCell>
        <mxCell id="fjmunv5LrS3fBDm1KLxQ-145" value="" style="ellipse;whiteSpace=wrap;html=1;aspect=fixed;fillColor=#e51400;strokeColor=#B20000;fontColor=#ffffff;" vertex="1" parent="1">
          <mxGeometry x="420" y="830" width="10" height="10" as="geometry" />
        </mxCell>
        <mxCell id="fjmunv5LrS3fBDm1KLxQ-146" value="" style="ellipse;whiteSpace=wrap;html=1;aspect=fixed;fillColor=#e51400;strokeColor=#B20000;fontColor=#ffffff;" vertex="1" parent="1">
          <mxGeometry x="440" y="830" width="10" height="10" as="geometry" />
        </mxCell>
        <mxCell id="fjmunv5LrS3fBDm1KLxQ-147" value="" style="ellipse;whiteSpace=wrap;html=1;aspect=fixed;fillColor=#e51400;strokeColor=#B20000;fontColor=#ffffff;" vertex="1" parent="1">
          <mxGeometry x="340" y="830" width="10" height="10" as="geometry" />
        </mxCell>
        <mxCell id="fjmunv5LrS3fBDm1KLxQ-148" value="" style="ellipse;whiteSpace=wrap;html=1;aspect=fixed;fillColor=#e51400;strokeColor=#B20000;fontColor=#ffffff;" vertex="1" parent="1">
          <mxGeometry x="460" y="830" width="10" height="10" as="geometry" />
        </mxCell>
        <mxCell id="fjmunv5LrS3fBDm1KLxQ-149" value="" style="ellipse;whiteSpace=wrap;html=1;aspect=fixed;fillColor=#e51400;strokeColor=#B20000;fontColor=#ffffff;" vertex="1" parent="1">
          <mxGeometry x="500" y="830" width="10" height="10" as="geometry" />
        </mxCell>
        <mxCell id="fjmunv5LrS3fBDm1KLxQ-150" value="" style="ellipse;whiteSpace=wrap;html=1;aspect=fixed;fillColor=#e51400;strokeColor=#B20000;fontColor=#ffffff;" vertex="1" parent="1">
          <mxGeometry x="520" y="830" width="10" height="10" as="geometry" />
        </mxCell>
        <mxCell id="fjmunv5LrS3fBDm1KLxQ-151" value="" style="ellipse;whiteSpace=wrap;html=1;aspect=fixed;fillColor=#e51400;strokeColor=#B20000;fontColor=#ffffff;" vertex="1" parent="1">
          <mxGeometry x="540" y="830" width="10" height="10" as="geometry" />
        </mxCell>
        <mxCell id="fjmunv5LrS3fBDm1KLxQ-152" value="" style="ellipse;whiteSpace=wrap;html=1;aspect=fixed;fillColor=#e51400;strokeColor=#B20000;fontColor=#ffffff;" vertex="1" parent="1">
          <mxGeometry x="560" y="830" width="10" height="10" as="geometry" />
        </mxCell>
        <mxCell id="fjmunv5LrS3fBDm1KLxQ-153" value="" style="ellipse;whiteSpace=wrap;html=1;aspect=fixed;fillColor=#e51400;strokeColor=#B20000;fontColor=#ffffff;" vertex="1" parent="1">
          <mxGeometry x="580" y="830" width="10" height="10" as="geometry" />
        </mxCell>
        <mxCell id="fjmunv5LrS3fBDm1KLxQ-154" value="" style="ellipse;whiteSpace=wrap;html=1;aspect=fixed;fillColor=#e51400;strokeColor=#B20000;fontColor=#ffffff;" vertex="1" parent="1">
          <mxGeometry x="480" y="830" width="10" height="10" as="geometry" />
        </mxCell>
        <mxCell id="fjmunv5LrS3fBDm1KLxQ-155" value="" style="ellipse;whiteSpace=wrap;html=1;aspect=fixed;fillColor=#e51400;strokeColor=#B20000;fontColor=#ffffff;" vertex="1" parent="1">
          <mxGeometry x="600" y="830" width="10" height="10" as="geometry" />
        </mxCell>
        <mxCell id="fjmunv5LrS3fBDm1KLxQ-156" value="" style="ellipse;whiteSpace=wrap;html=1;aspect=fixed;fillColor=#e51400;strokeColor=#B20000;fontColor=#ffffff;" vertex="1" parent="1">
          <mxGeometry x="360" y="850" width="10" height="10" as="geometry" />
        </mxCell>
        <mxCell id="fjmunv5LrS3fBDm1KLxQ-157" value="" style="ellipse;whiteSpace=wrap;html=1;aspect=fixed;fillColor=#e51400;strokeColor=#B20000;fontColor=#ffffff;" vertex="1" parent="1">
          <mxGeometry x="380" y="850" width="10" height="10" as="geometry" />
        </mxCell>
        <mxCell id="fjmunv5LrS3fBDm1KLxQ-158" value="" style="ellipse;whiteSpace=wrap;html=1;aspect=fixed;fillColor=#e51400;strokeColor=#B20000;fontColor=#ffffff;" vertex="1" parent="1">
          <mxGeometry x="400" y="850" width="10" height="10" as="geometry" />
        </mxCell>
        <mxCell id="fjmunv5LrS3fBDm1KLxQ-159" value="" style="ellipse;whiteSpace=wrap;html=1;aspect=fixed;fillColor=#B3B3B3;" vertex="1" parent="1">
          <mxGeometry x="420" y="850" width="10" height="10" as="geometry" />
        </mxCell>
        <mxCell id="fjmunv5LrS3fBDm1KLxQ-160" value="" style="ellipse;whiteSpace=wrap;html=1;aspect=fixed;fillColor=#B3B3B3;" vertex="1" parent="1">
          <mxGeometry x="440" y="850" width="10" height="10" as="geometry" />
        </mxCell>
        <mxCell id="fjmunv5LrS3fBDm1KLxQ-161" value="" style="ellipse;whiteSpace=wrap;html=1;aspect=fixed;strokeColor=#B20000;fontColor=#ffffff;fillColor=#B3B3B3;" vertex="1" parent="1">
          <mxGeometry x="340" y="850" width="10" height="10" as="geometry" />
        </mxCell>
        <mxCell id="fjmunv5LrS3fBDm1KLxQ-162" value="" style="ellipse;whiteSpace=wrap;html=1;aspect=fixed;fillColor=#B3B3B3;" vertex="1" parent="1">
          <mxGeometry x="460" y="850" width="10" height="10" as="geometry" />
        </mxCell>
        <mxCell id="fjmunv5LrS3fBDm1KLxQ-163" value="" style="ellipse;whiteSpace=wrap;html=1;aspect=fixed;fillColor=#B3B3B3;" vertex="1" parent="1">
          <mxGeometry x="500" y="850" width="10" height="10" as="geometry" />
        </mxCell>
        <mxCell id="fjmunv5LrS3fBDm1KLxQ-164" value="" style="ellipse;whiteSpace=wrap;html=1;aspect=fixed;fillColor=#B3B3B3;" vertex="1" parent="1">
          <mxGeometry x="520" y="850" width="10" height="10" as="geometry" />
        </mxCell>
        <mxCell id="fjmunv5LrS3fBDm1KLxQ-165" value="" style="ellipse;whiteSpace=wrap;html=1;aspect=fixed;fillColor=#B3B3B3;" vertex="1" parent="1">
          <mxGeometry x="540" y="850" width="10" height="10" as="geometry" />
        </mxCell>
        <mxCell id="fjmunv5LrS3fBDm1KLxQ-166" value="" style="ellipse;whiteSpace=wrap;html=1;aspect=fixed;fillColor=#e51400;strokeColor=#B20000;fontColor=#ffffff;" vertex="1" parent="1">
          <mxGeometry x="560" y="850" width="10" height="10" as="geometry" />
        </mxCell>
        <mxCell id="fjmunv5LrS3fBDm1KLxQ-167" value="" style="ellipse;whiteSpace=wrap;html=1;aspect=fixed;fillColor=#e51400;strokeColor=#B20000;fontColor=#ffffff;" vertex="1" parent="1">
          <mxGeometry x="580" y="850" width="10" height="10" as="geometry" />
        </mxCell>
        <mxCell id="fjmunv5LrS3fBDm1KLxQ-168" value="" style="ellipse;whiteSpace=wrap;html=1;aspect=fixed;fillColor=#B3B3B3;" vertex="1" parent="1">
          <mxGeometry x="480" y="850" width="10" height="10" as="geometry" />
        </mxCell>
        <mxCell id="fjmunv5LrS3fBDm1KLxQ-169" value="" style="ellipse;whiteSpace=wrap;html=1;aspect=fixed;fillColor=#B3B3B3;" vertex="1" parent="1">
          <mxGeometry x="600" y="850" width="10" height="10" as="geometry" />
        </mxCell>
        <mxCell id="fjmunv5LrS3fBDm1KLxQ-170" value="" style="ellipse;whiteSpace=wrap;html=1;aspect=fixed;fillColor=#e51400;strokeColor=#B20000;fontColor=#ffffff;" vertex="1" parent="1">
          <mxGeometry x="360" y="870" width="10" height="10" as="geometry" />
        </mxCell>
        <mxCell id="fjmunv5LrS3fBDm1KLxQ-171" value="" style="ellipse;whiteSpace=wrap;html=1;aspect=fixed;fillColor=#e51400;strokeColor=#B20000;fontColor=#ffffff;" vertex="1" parent="1">
          <mxGeometry x="380" y="870" width="10" height="10" as="geometry" />
        </mxCell>
        <mxCell id="fjmunv5LrS3fBDm1KLxQ-172" value="" style="ellipse;whiteSpace=wrap;html=1;aspect=fixed;fillColor=#e51400;strokeColor=#B20000;fontColor=#ffffff;" vertex="1" parent="1">
          <mxGeometry x="400" y="870" width="10" height="10" as="geometry" />
        </mxCell>
        <mxCell id="fjmunv5LrS3fBDm1KLxQ-173" value="" style="ellipse;whiteSpace=wrap;html=1;aspect=fixed;fillColor=#e51400;strokeColor=#B20000;fontColor=#ffffff;" vertex="1" parent="1">
          <mxGeometry x="420" y="870" width="10" height="10" as="geometry" />
        </mxCell>
        <mxCell id="fjmunv5LrS3fBDm1KLxQ-174" value="" style="ellipse;whiteSpace=wrap;html=1;aspect=fixed;fillColor=#e51400;strokeColor=#B20000;fontColor=#ffffff;" vertex="1" parent="1">
          <mxGeometry x="440" y="870" width="10" height="10" as="geometry" />
        </mxCell>
        <mxCell id="fjmunv5LrS3fBDm1KLxQ-175" value="" style="ellipse;whiteSpace=wrap;html=1;aspect=fixed;fillColor=#e51400;strokeColor=#B20000;fontColor=#ffffff;" vertex="1" parent="1">
          <mxGeometry x="340" y="870" width="10" height="10" as="geometry" />
        </mxCell>
        <mxCell id="fjmunv5LrS3fBDm1KLxQ-176" value="" style="ellipse;whiteSpace=wrap;html=1;aspect=fixed;fillColor=#e51400;strokeColor=#B20000;fontColor=#ffffff;" vertex="1" parent="1">
          <mxGeometry x="460" y="870" width="10" height="10" as="geometry" />
        </mxCell>
        <mxCell id="fjmunv5LrS3fBDm1KLxQ-177" value="" style="ellipse;whiteSpace=wrap;html=1;aspect=fixed;fillColor=#e51400;strokeColor=#B20000;fontColor=#ffffff;" vertex="1" parent="1">
          <mxGeometry x="500" y="870" width="10" height="10" as="geometry" />
        </mxCell>
        <mxCell id="fjmunv5LrS3fBDm1KLxQ-178" value="" style="ellipse;whiteSpace=wrap;html=1;aspect=fixed;fillColor=#e51400;strokeColor=#B20000;fontColor=#ffffff;" vertex="1" parent="1">
          <mxGeometry x="520" y="870" width="10" height="10" as="geometry" />
        </mxCell>
        <mxCell id="fjmunv5LrS3fBDm1KLxQ-179" value="" style="ellipse;whiteSpace=wrap;html=1;aspect=fixed;fillColor=#e51400;strokeColor=#B20000;fontColor=#ffffff;" vertex="1" parent="1">
          <mxGeometry x="540" y="870" width="10" height="10" as="geometry" />
        </mxCell>
        <mxCell id="fjmunv5LrS3fBDm1KLxQ-180" value="" style="ellipse;whiteSpace=wrap;html=1;aspect=fixed;fillColor=#e51400;strokeColor=#B20000;fontColor=#ffffff;" vertex="1" parent="1">
          <mxGeometry x="560" y="870" width="10" height="10" as="geometry" />
        </mxCell>
        <mxCell id="fjmunv5LrS3fBDm1KLxQ-181" value="" style="ellipse;whiteSpace=wrap;html=1;aspect=fixed;fillColor=#e51400;strokeColor=#B20000;fontColor=#ffffff;" vertex="1" parent="1">
          <mxGeometry x="580" y="870" width="10" height="10" as="geometry" />
        </mxCell>
        <mxCell id="fjmunv5LrS3fBDm1KLxQ-182" value="" style="ellipse;whiteSpace=wrap;html=1;aspect=fixed;fillColor=#e51400;strokeColor=#B20000;fontColor=#ffffff;" vertex="1" parent="1">
          <mxGeometry x="480" y="870" width="10" height="10" as="geometry" />
        </mxCell>
        <mxCell id="fjmunv5LrS3fBDm1KLxQ-183" value="" style="ellipse;whiteSpace=wrap;html=1;aspect=fixed;fillColor=#e51400;strokeColor=#B20000;fontColor=#ffffff;" vertex="1" parent="1">
          <mxGeometry x="600" y="870" width="10" height="10" as="geometry" />
        </mxCell>
        <mxCell id="fjmunv5LrS3fBDm1KLxQ-184" value="" style="ellipse;whiteSpace=wrap;html=1;aspect=fixed;fillColor=#e51400;strokeColor=#B20000;fontColor=#ffffff;" vertex="1" parent="1">
          <mxGeometry x="360" y="890" width="10" height="10" as="geometry" />
        </mxCell>
        <mxCell id="fjmunv5LrS3fBDm1KLxQ-185" value="" style="ellipse;whiteSpace=wrap;html=1;aspect=fixed;fillColor=#e51400;strokeColor=#B20000;fontColor=#ffffff;" vertex="1" parent="1">
          <mxGeometry x="380" y="890" width="10" height="10" as="geometry" />
        </mxCell>
        <mxCell id="fjmunv5LrS3fBDm1KLxQ-186" value="" style="ellipse;whiteSpace=wrap;html=1;aspect=fixed;fillColor=#e51400;strokeColor=#B20000;fontColor=#ffffff;" vertex="1" parent="1">
          <mxGeometry x="400" y="890" width="10" height="10" as="geometry" />
        </mxCell>
        <mxCell id="fjmunv5LrS3fBDm1KLxQ-187" value="" style="ellipse;whiteSpace=wrap;html=1;aspect=fixed;fillColor=#B3B3B3;" vertex="1" parent="1">
          <mxGeometry x="420" y="890" width="10" height="10" as="geometry" />
        </mxCell>
        <mxCell id="fjmunv5LrS3fBDm1KLxQ-188" value="" style="ellipse;whiteSpace=wrap;html=1;aspect=fixed;fillColor=#B3B3B3;" vertex="1" parent="1">
          <mxGeometry x="440" y="890" width="10" height="10" as="geometry" />
        </mxCell>
        <mxCell id="fjmunv5LrS3fBDm1KLxQ-189" value="" style="ellipse;whiteSpace=wrap;html=1;aspect=fixed;fillColor=#B3B3B3;" vertex="1" parent="1">
          <mxGeometry x="340" y="890" width="10" height="10" as="geometry" />
        </mxCell>
        <mxCell id="fjmunv5LrS3fBDm1KLxQ-190" value="" style="ellipse;whiteSpace=wrap;html=1;aspect=fixed;fillColor=#B3B3B3;" vertex="1" parent="1">
          <mxGeometry x="460" y="890" width="10" height="10" as="geometry" />
        </mxCell>
        <mxCell id="fjmunv5LrS3fBDm1KLxQ-191" value="" style="ellipse;whiteSpace=wrap;html=1;aspect=fixed;fillColor=#B3B3B3;" vertex="1" parent="1">
          <mxGeometry x="500" y="890" width="10" height="10" as="geometry" />
        </mxCell>
        <mxCell id="fjmunv5LrS3fBDm1KLxQ-192" value="" style="ellipse;whiteSpace=wrap;html=1;aspect=fixed;fillColor=#B3B3B3;" vertex="1" parent="1">
          <mxGeometry x="520" y="890" width="10" height="10" as="geometry" />
        </mxCell>
        <mxCell id="fjmunv5LrS3fBDm1KLxQ-193" value="" style="ellipse;whiteSpace=wrap;html=1;aspect=fixed;fillColor=#B3B3B3;" vertex="1" parent="1">
          <mxGeometry x="540" y="890" width="10" height="10" as="geometry" />
        </mxCell>
        <mxCell id="fjmunv5LrS3fBDm1KLxQ-194" value="" style="ellipse;whiteSpace=wrap;html=1;aspect=fixed;fillColor=#B3B3B3;" vertex="1" parent="1">
          <mxGeometry x="560" y="890" width="10" height="10" as="geometry" />
        </mxCell>
        <mxCell id="fjmunv5LrS3fBDm1KLxQ-195" value="" style="ellipse;whiteSpace=wrap;html=1;aspect=fixed;fillColor=#e51400;strokeColor=#B20000;fontColor=#ffffff;" vertex="1" parent="1">
          <mxGeometry x="580" y="890" width="10" height="10" as="geometry" />
        </mxCell>
        <mxCell id="fjmunv5LrS3fBDm1KLxQ-196" value="" style="ellipse;whiteSpace=wrap;html=1;aspect=fixed;fillColor=#B3B3B3;" vertex="1" parent="1">
          <mxGeometry x="480" y="890" width="10" height="10" as="geometry" />
        </mxCell>
        <mxCell id="fjmunv5LrS3fBDm1KLxQ-197" value="" style="ellipse;whiteSpace=wrap;html=1;aspect=fixed;fillColor=#e51400;strokeColor=#B20000;fontColor=#ffffff;" vertex="1" parent="1">
          <mxGeometry x="600" y="890" width="10" height="10" as="geometry" />
        </mxCell>
        <mxCell id="fjmunv5LrS3fBDm1KLxQ-198" value="0" style="text;html=1;align=center;verticalAlign=middle;resizable=0;points=[];autosize=1;strokeColor=none;" vertex="1" parent="1">
          <mxGeometry x="335" y="600" width="20" height="20" as="geometry" />
        </mxCell>
        <mxCell id="fjmunv5LrS3fBDm1KLxQ-199" value="1" style="text;html=1;align=center;verticalAlign=middle;resizable=0;points=[];autosize=1;strokeColor=none;" vertex="1" parent="1">
          <mxGeometry x="355" y="600" width="20" height="20" as="geometry" />
        </mxCell>
        <mxCell id="fjmunv5LrS3fBDm1KLxQ-200" value="2" style="text;html=1;align=center;verticalAlign=middle;resizable=0;points=[];autosize=1;strokeColor=none;" vertex="1" parent="1">
          <mxGeometry x="375" y="600" width="20" height="20" as="geometry" />
        </mxCell>
        <mxCell id="fjmunv5LrS3fBDm1KLxQ-201" value="3" style="text;html=1;align=center;verticalAlign=middle;resizable=0;points=[];autosize=1;strokeColor=none;" vertex="1" parent="1">
          <mxGeometry x="395.5" y="600" width="20" height="20" as="geometry" />
        </mxCell>
        <mxCell id="fjmunv5LrS3fBDm1KLxQ-202" value="4" style="text;html=1;align=center;verticalAlign=middle;resizable=0;points=[];autosize=1;strokeColor=none;" vertex="1" parent="1">
          <mxGeometry x="415.5" y="600" width="20" height="20" as="geometry" />
        </mxCell>
        <mxCell id="fjmunv5LrS3fBDm1KLxQ-203" value="5" style="text;html=1;align=center;verticalAlign=middle;resizable=0;points=[];autosize=1;strokeColor=none;" vertex="1" parent="1">
          <mxGeometry x="435.5" y="600" width="20" height="20" as="geometry" />
        </mxCell>
        <mxCell id="fjmunv5LrS3fBDm1KLxQ-204" value="6" style="text;html=1;align=center;verticalAlign=middle;resizable=0;points=[];autosize=1;strokeColor=none;" vertex="1" parent="1">
          <mxGeometry x="455.5" y="600" width="20" height="20" as="geometry" />
        </mxCell>
        <mxCell id="fjmunv5LrS3fBDm1KLxQ-205" value="7" style="text;html=1;align=center;verticalAlign=middle;resizable=0;points=[];autosize=1;strokeColor=none;" vertex="1" parent="1">
          <mxGeometry x="475.5" y="600" width="20" height="20" as="geometry" />
        </mxCell>
        <mxCell id="fjmunv5LrS3fBDm1KLxQ-206" value="8" style="text;html=1;align=center;verticalAlign=middle;resizable=0;points=[];autosize=1;strokeColor=none;" vertex="1" parent="1">
          <mxGeometry x="495.5" y="600" width="20" height="20" as="geometry" />
        </mxCell>
        <mxCell id="fjmunv5LrS3fBDm1KLxQ-207" value="9" style="text;html=1;align=center;verticalAlign=middle;resizable=0;points=[];autosize=1;strokeColor=none;" vertex="1" parent="1">
          <mxGeometry x="515.5" y="600" width="20" height="20" as="geometry" />
        </mxCell>
        <mxCell id="fjmunv5LrS3fBDm1KLxQ-208" value="10" style="text;html=1;align=center;verticalAlign=middle;resizable=0;points=[];autosize=1;strokeColor=none;" vertex="1" parent="1">
          <mxGeometry x="530" y="600" width="30" height="20" as="geometry" />
        </mxCell>
        <mxCell id="fjmunv5LrS3fBDm1KLxQ-209" value="8" style="text;html=1;align=center;verticalAlign=middle;resizable=0;points=[];autosize=1;strokeColor=none;" vertex="1" parent="1">
          <mxGeometry x="555" y="600" width="20" height="20" as="geometry" />
        </mxCell>
        <mxCell id="fjmunv5LrS3fBDm1KLxQ-210" value="11" style="text;html=1;align=center;verticalAlign=middle;resizable=0;points=[];autosize=1;strokeColor=none;" vertex="1" parent="1">
          <mxGeometry x="570" y="600" width="30" height="20" as="geometry" />
        </mxCell>
        <mxCell id="fjmunv5LrS3fBDm1KLxQ-211" value="12" style="text;html=1;align=center;verticalAlign=middle;resizable=0;points=[];autosize=1;strokeColor=none;" vertex="1" parent="1">
          <mxGeometry x="589" y="600" width="30" height="20" as="geometry" />
        </mxCell>
        <mxCell id="fjmunv5LrS3fBDm1KLxQ-212" value="0" style="text;html=1;align=center;verticalAlign=middle;resizable=0;points=[];autosize=1;strokeColor=#FFFFFF;" vertex="1" parent="1">
          <mxGeometry x="304" y="625" width="20" height="20" as="geometry" />
        </mxCell>
        <mxCell id="fjmunv5LrS3fBDm1KLxQ-213" value="1" style="text;html=1;align=center;verticalAlign=middle;resizable=0;points=[];autosize=1;" vertex="1" parent="1">
          <mxGeometry x="304" y="645" width="20" height="20" as="geometry" />
        </mxCell>
        <mxCell id="fjmunv5LrS3fBDm1KLxQ-214" value="2" style="text;html=1;align=center;verticalAlign=middle;resizable=0;points=[];autosize=1;strokeColor=none;" vertex="1" parent="1">
          <mxGeometry x="304" y="665" width="20" height="20" as="geometry" />
        </mxCell>
        <mxCell id="fjmunv5LrS3fBDm1KLxQ-215" value="3" style="text;html=1;align=center;verticalAlign=middle;resizable=0;points=[];autosize=1;strokeColor=none;" vertex="1" parent="1">
          <mxGeometry x="304" y="685" width="20" height="20" as="geometry" />
        </mxCell>
        <mxCell id="fjmunv5LrS3fBDm1KLxQ-216" value="4" style="text;html=1;align=center;verticalAlign=middle;resizable=0;points=[];autosize=1;strokeColor=none;" vertex="1" parent="1">
          <mxGeometry x="304" y="705" width="20" height="20" as="geometry" />
        </mxCell>
        <mxCell id="fjmunv5LrS3fBDm1KLxQ-217" value="5" style="text;html=1;align=center;verticalAlign=middle;resizable=0;points=[];autosize=1;strokeColor=none;" vertex="1" parent="1">
          <mxGeometry x="304" y="725" width="20" height="20" as="geometry" />
        </mxCell>
        <mxCell id="fjmunv5LrS3fBDm1KLxQ-218" value="6" style="text;html=1;align=center;verticalAlign=middle;resizable=0;points=[];autosize=1;strokeColor=none;" vertex="1" parent="1">
          <mxGeometry x="304" y="745" width="20" height="20" as="geometry" />
        </mxCell>
        <mxCell id="fjmunv5LrS3fBDm1KLxQ-219" value="7" style="text;html=1;align=center;verticalAlign=middle;resizable=0;points=[];autosize=1;strokeColor=none;" vertex="1" parent="1">
          <mxGeometry x="304" y="765" width="20" height="20" as="geometry" />
        </mxCell>
        <mxCell id="fjmunv5LrS3fBDm1KLxQ-220" value="8" style="text;html=1;align=center;verticalAlign=middle;resizable=0;points=[];autosize=1;strokeColor=none;" vertex="1" parent="1">
          <mxGeometry x="303" y="785" width="20" height="20" as="geometry" />
        </mxCell>
        <mxCell id="fjmunv5LrS3fBDm1KLxQ-221" value="9" style="text;html=1;align=center;verticalAlign=middle;resizable=0;points=[];autosize=1;strokeColor=none;" vertex="1" parent="1">
          <mxGeometry x="304" y="805" width="20" height="20" as="geometry" />
        </mxCell>
        <mxCell id="fjmunv5LrS3fBDm1KLxQ-222" value="10" style="text;html=1;align=center;verticalAlign=middle;resizable=0;points=[];autosize=1;strokeColor=none;" vertex="1" parent="1">
          <mxGeometry x="299" y="825" width="30" height="20" as="geometry" />
        </mxCell>
        <mxCell id="fjmunv5LrS3fBDm1KLxQ-223" value="11" style="text;html=1;align=center;verticalAlign=middle;resizable=0;points=[];autosize=1;strokeColor=none;" vertex="1" parent="1">
          <mxGeometry x="299" y="865" width="30" height="20" as="geometry" />
        </mxCell>
        <mxCell id="fjmunv5LrS3fBDm1KLxQ-224" value="12" style="text;html=1;align=center;verticalAlign=middle;resizable=0;points=[];autosize=1;strokeColor=none;" vertex="1" parent="1">
          <mxGeometry x="298" y="885" width="30" height="20" as="geometry" />
        </mxCell>
        <mxCell id="fjmunv5LrS3fBDm1KLxQ-225" value="13" style="text;html=1;align=center;verticalAlign=middle;resizable=0;points=[];autosize=1;strokeColor=none;" vertex="1" parent="1">
          <mxGeometry x="299" y="905" width="30" height="20" as="geometry" />
        </mxCell>
        <mxCell id="fjmunv5LrS3fBDm1KLxQ-226" value="" style="ellipse;whiteSpace=wrap;html=1;aspect=fixed;fillColor=#9AC7BF;" vertex="1" parent="1">
          <mxGeometry x="619" y="630" width="10" height="10" as="geometry" />
        </mxCell>
        <mxCell id="fjmunv5LrS3fBDm1KLxQ-227" value="" style="ellipse;whiteSpace=wrap;html=1;aspect=fixed;strokeColor=#B20000;fontColor=#ffffff;fillColor=#B3B3B3;" vertex="1" parent="1">
          <mxGeometry x="619" y="650" width="10" height="10" as="geometry" />
        </mxCell>
        <mxCell id="fjmunv5LrS3fBDm1KLxQ-228" value="" style="ellipse;whiteSpace=wrap;html=1;aspect=fixed;strokeColor=#B20000;fontColor=#ffffff;fillColor=#B3B3B3;" vertex="1" parent="1">
          <mxGeometry x="619" y="670" width="10" height="10" as="geometry" />
        </mxCell>
        <mxCell id="fjmunv5LrS3fBDm1KLxQ-229" value="" style="ellipse;whiteSpace=wrap;html=1;aspect=fixed;strokeColor=#B20000;fontColor=#ffffff;fillColor=#B3B3B3;" vertex="1" parent="1">
          <mxGeometry x="619" y="690" width="10" height="10" as="geometry" />
        </mxCell>
        <mxCell id="fjmunv5LrS3fBDm1KLxQ-230" value="" style="ellipse;whiteSpace=wrap;html=1;aspect=fixed;fillColor=#B3B3B3;" vertex="1" parent="1">
          <mxGeometry x="619" y="710" width="10" height="10" as="geometry" />
        </mxCell>
        <mxCell id="fjmunv5LrS3fBDm1KLxQ-231" value="" style="ellipse;whiteSpace=wrap;html=1;aspect=fixed;fillColor=#B3B3B3;" vertex="1" parent="1">
          <mxGeometry x="619" y="730" width="10" height="10" as="geometry" />
        </mxCell>
        <mxCell id="fjmunv5LrS3fBDm1KLxQ-232" value="" style="ellipse;whiteSpace=wrap;html=1;aspect=fixed;fillColor=#B3B3B3;" vertex="1" parent="1">
          <mxGeometry x="619" y="750" width="10" height="10" as="geometry" />
        </mxCell>
        <mxCell id="fjmunv5LrS3fBDm1KLxQ-233" value="" style="ellipse;whiteSpace=wrap;html=1;aspect=fixed;fillColor=#B3B3B3;" vertex="1" parent="1">
          <mxGeometry x="619" y="770" width="10" height="10" as="geometry" />
        </mxCell>
        <mxCell id="fjmunv5LrS3fBDm1KLxQ-234" value="" style="ellipse;whiteSpace=wrap;html=1;aspect=fixed;fillColor=#B3B3B3;" vertex="1" parent="1">
          <mxGeometry x="619" y="790" width="10" height="10" as="geometry" />
        </mxCell>
        <mxCell id="fjmunv5LrS3fBDm1KLxQ-235" value="" style="ellipse;whiteSpace=wrap;html=1;aspect=fixed;fillColor=#B3B3B3;" vertex="1" parent="1">
          <mxGeometry x="619" y="810" width="10" height="10" as="geometry" />
        </mxCell>
        <mxCell id="fjmunv5LrS3fBDm1KLxQ-236" value="" style="ellipse;whiteSpace=wrap;html=1;aspect=fixed;fillColor=#e51400;strokeColor=#B20000;fontColor=#ffffff;" vertex="1" parent="1">
          <mxGeometry x="619" y="830" width="10" height="10" as="geometry" />
        </mxCell>
        <mxCell id="fjmunv5LrS3fBDm1KLxQ-237" value="" style="ellipse;whiteSpace=wrap;html=1;aspect=fixed;fillColor=#B3B3B3;" vertex="1" parent="1">
          <mxGeometry x="619" y="850" width="10" height="10" as="geometry" />
        </mxCell>
        <mxCell id="fjmunv5LrS3fBDm1KLxQ-238" value="" style="ellipse;whiteSpace=wrap;html=1;aspect=fixed;fillColor=#e51400;strokeColor=#B20000;fontColor=#ffffff;" vertex="1" parent="1">
          <mxGeometry x="619" y="870" width="10" height="10" as="geometry" />
        </mxCell>
        <mxCell id="fjmunv5LrS3fBDm1KLxQ-239" value="" style="ellipse;whiteSpace=wrap;html=1;aspect=fixed;fillColor=#e51400;strokeColor=#B20000;fontColor=#ffffff;" vertex="1" parent="1">
          <mxGeometry x="619" y="890" width="10" height="10" as="geometry" />
        </mxCell>
        <mxCell id="fjmunv5LrS3fBDm1KLxQ-240" value="" style="ellipse;whiteSpace=wrap;html=1;aspect=fixed;fillColor=#e51400;strokeColor=#B20000;fontColor=#ffffff;" vertex="1" parent="1">
          <mxGeometry x="360" y="910" width="10" height="10" as="geometry" />
        </mxCell>
        <mxCell id="fjmunv5LrS3fBDm1KLxQ-241" value="" style="ellipse;whiteSpace=wrap;html=1;aspect=fixed;fillColor=#e51400;strokeColor=#B20000;fontColor=#ffffff;" vertex="1" parent="1">
          <mxGeometry x="380" y="910" width="10" height="10" as="geometry" />
        </mxCell>
        <mxCell id="fjmunv5LrS3fBDm1KLxQ-242" value="" style="ellipse;whiteSpace=wrap;html=1;aspect=fixed;fillColor=#e51400;strokeColor=#B20000;fontColor=#ffffff;" vertex="1" parent="1">
          <mxGeometry x="400" y="910" width="10" height="10" as="geometry" />
        </mxCell>
        <mxCell id="fjmunv5LrS3fBDm1KLxQ-243" value="" style="ellipse;whiteSpace=wrap;html=1;aspect=fixed;fillColor=#B3B3B3;" vertex="1" parent="1">
          <mxGeometry x="420" y="910" width="10" height="10" as="geometry" />
        </mxCell>
        <mxCell id="fjmunv5LrS3fBDm1KLxQ-244" value="" style="ellipse;whiteSpace=wrap;html=1;aspect=fixed;fillColor=#B3B3B3;" vertex="1" parent="1">
          <mxGeometry x="440" y="910" width="10" height="10" as="geometry" />
        </mxCell>
        <mxCell id="fjmunv5LrS3fBDm1KLxQ-245" value="" style="ellipse;whiteSpace=wrap;html=1;aspect=fixed;fillColor=#B3B3B3;" vertex="1" parent="1">
          <mxGeometry x="340" y="910" width="10" height="10" as="geometry" />
        </mxCell>
        <mxCell id="fjmunv5LrS3fBDm1KLxQ-246" value="" style="ellipse;whiteSpace=wrap;html=1;aspect=fixed;fillColor=#B3B3B3;" vertex="1" parent="1">
          <mxGeometry x="460" y="910" width="10" height="10" as="geometry" />
        </mxCell>
        <mxCell id="fjmunv5LrS3fBDm1KLxQ-247" value="" style="ellipse;whiteSpace=wrap;html=1;aspect=fixed;fillColor=#B3B3B3;" vertex="1" parent="1">
          <mxGeometry x="500" y="910" width="10" height="10" as="geometry" />
        </mxCell>
        <mxCell id="fjmunv5LrS3fBDm1KLxQ-248" value="" style="ellipse;whiteSpace=wrap;html=1;aspect=fixed;fillColor=#B3B3B3;" vertex="1" parent="1">
          <mxGeometry x="520" y="910" width="10" height="10" as="geometry" />
        </mxCell>
        <mxCell id="fjmunv5LrS3fBDm1KLxQ-249" value="" style="ellipse;whiteSpace=wrap;html=1;aspect=fixed;fillColor=#B3B3B3;" vertex="1" parent="1">
          <mxGeometry x="540" y="910" width="10" height="10" as="geometry" />
        </mxCell>
        <mxCell id="fjmunv5LrS3fBDm1KLxQ-250" value="" style="ellipse;whiteSpace=wrap;html=1;aspect=fixed;fillColor=#B3B3B3;" vertex="1" parent="1">
          <mxGeometry x="560" y="910" width="10" height="10" as="geometry" />
        </mxCell>
        <mxCell id="fjmunv5LrS3fBDm1KLxQ-251" value="" style="ellipse;whiteSpace=wrap;html=1;aspect=fixed;fillColor=#e51400;strokeColor=#B20000;fontColor=#ffffff;" vertex="1" parent="1">
          <mxGeometry x="580" y="910" width="10" height="10" as="geometry" />
        </mxCell>
        <mxCell id="fjmunv5LrS3fBDm1KLxQ-252" value="" style="ellipse;whiteSpace=wrap;html=1;aspect=fixed;fillColor=#B3B3B3;" vertex="1" parent="1">
          <mxGeometry x="480" y="910" width="10" height="10" as="geometry" />
        </mxCell>
        <mxCell id="fjmunv5LrS3fBDm1KLxQ-253" value="" style="ellipse;whiteSpace=wrap;html=1;aspect=fixed;fillColor=#e51400;strokeColor=#B20000;fontColor=#ffffff;" vertex="1" parent="1">
          <mxGeometry x="600" y="910" width="10" height="10" as="geometry" />
        </mxCell>
        <mxCell id="fjmunv5LrS3fBDm1KLxQ-254" value="" style="ellipse;whiteSpace=wrap;html=1;aspect=fixed;fillColor=#e51400;strokeColor=#B20000;fontColor=#ffffff;" vertex="1" parent="1">
          <mxGeometry x="619" y="910" width="10" height="10" as="geometry" />
        </mxCell>
        <mxCell id="fjmunv5LrS3fBDm1KLxQ-255" value="8" style="text;html=1;align=center;verticalAlign=middle;resizable=0;points=[];autosize=1;strokeColor=none;" vertex="1" parent="1">
          <mxGeometry x="304" y="845" width="20" height="20" as="geometry" />
        </mxCell>
        <mxCell id="fjmunv5LrS3fBDm1KLxQ-256" value="13" style="text;html=1;align=center;verticalAlign=middle;resizable=0;points=[];autosize=1;strokeColor=none;" vertex="1" parent="1">
          <mxGeometry x="609" y="600" width="30" height="20" as="geometry" />
        </mxCell>
      </root>
    </mxGraphModel>
  </diagram>
</mxfile>
